<?xml version="1.0" encoding="iso-8859-1"?>
<!-- Generator: Adobe Illustrator 19.0.0, SVG Export Plug-In . SVG Version: 6.00 Build 0)  -->
<svg version="1.1" id="Layer_1" xmlns="http://www.w3.org/2000/svg" xmlns:xlink="http://www.w3.org/1999/xlink" x="0px" y="0px"
	 viewBox="0 0 512 512" style="enable-background:new 0 0 512 512;" xml:space="preserve">
<g>
	<rect x="92.204" y="460.255" style="fill:#E8D6BD;" width="327.593" height="43.574"/>
	<path style="fill:#E8D6BD;" d="M419.807,8.17v43.574c-0.011,0-327.615,0-327.615,0V8.17H419.807z"/>
</g>
<path style="fill:#D2BA9C;" d="M419.796,51.745c-61.179,128.915-61.179,279.596,0,408.511H92.204
	c61.179-128.915,61.179-279.596-0.011-408.511H419.796z"/>
<g>
	<path style="fill:#BD9F79;" d="M92.193,51.745c61.189,128.915,61.189,279.596,0.011,408.511
		C31.014,331.34,31.014,180.66,92.193,51.745z"/>
	<path style="fill:#BD9F79;" d="M419.807,51.745c61.179,128.915,61.179,279.596-0.011,408.511
		C358.618,331.34,358.618,180.66,419.807,51.745z"/>
</g>
<path style="fill:#B75548;" d="M200.606,200.606l110.788,110.788c-21.079,21.079-62.965,13.366-93.565-17.223
	C187.239,263.571,179.527,221.685,200.606,200.606z"/>
<path style="fill:#8E4238;" d="M294.171,217.829c30.589,30.589,38.302,72.486,17.223,93.565L200.606,200.606
	C221.685,179.527,263.582,187.239,294.171,217.829z"/>
<g>
	<path style="fill:#700D00;" d="M115.11,403.047c-4.249-1.521-8.925,0.69-10.447,4.936l-4.523,12.619
		c-1.523,4.247,0.684,8.925,4.932,10.449c0.912,0.327,1.842,0.481,2.758,0.481c3.351,0,6.494-2.078,7.691-5.413l4.525-12.626
		C121.567,409.246,119.357,404.569,115.11,403.047z"/>
	<path style="fill:#700D00;" d="M127.332,357.731c-4.375-1.094-8.813,1.566-9.908,5.945l-3.256,13.004
		c-1.097,4.377,1.561,8.814,5.938,9.912c0.667,0.167,1.336,0.247,1.994,0.247c3.658,0,6.988-2.475,7.919-6.185l3.258-13.012
		C134.371,363.262,131.709,358.826,127.332,357.731z"/>
	<path style="fill:#700D00;" d="M135.045,311.431c-4.464-0.656-8.618,2.424-9.278,6.887l-1.965,13.262
		c-0.662,4.463,2.419,8.619,6.883,9.281c0.406,0.06,0.81,0.089,1.209,0.089c3.982,0,7.469-2.915,8.072-6.972l1.966-13.27
		C142.592,316.245,139.508,312.091,135.045,311.431z"/>
	<path style="fill:#700D00;" d="M138.188,264.598c-4.512-0.209-8.339,3.255-8.56,7.762l-0.658,13.392
		c-0.222,4.507,3.251,8.34,7.757,8.562c0.137,0.007,0.273,0.01,0.41,0.01c4.327,0,7.938-3.399,8.153-7.767l0.659-13.397
		C146.169,268.652,142.694,264.819,138.188,264.598z"/>
	<path style="fill:#700D00;" d="M136.624,217.688c-4.503,0.283-7.924,4.165-7.641,8.668c0.273,4.343,0.49,8.774,0.644,13.167
		c0.155,4.412,3.78,7.884,8.16,7.884c0.097,0,0.194-0.001,0.292-0.004c4.51-0.159,8.037-3.942,7.879-8.451
		c-0.159-4.545-0.385-9.128-0.667-13.621C145.007,220.826,141.118,217.422,136.624,217.688z"/>
	<path style="fill:#700D00;" d="M130.693,171.133c-4.463,0.662-7.544,4.818-6.88,9.282l1.965,13.261
		c0.6,4.059,4.088,6.976,8.072,6.976c0.398,0,0.8-0.029,1.205-0.089c4.464-0.659,7.547-4.813,6.888-9.277l-1.967-13.273
		C139.313,173.551,135.16,170.464,130.693,171.133z"/>
	<path style="fill:#700D00;" d="M114.171,135.315l3.259,13.005c0.929,3.711,4.259,6.188,7.92,6.188c0.657,0,1.325-0.08,1.991-0.247
		c4.377-1.096,7.037-5.533,5.941-9.91l-3.262-13.012c-1.098-4.377-5.537-7.035-9.913-5.936
		C115.729,126.501,113.071,130.939,114.171,135.315z"/>
	<path style="fill:#700D00;" d="M104.624,103.9c1.162,3.391,4.333,5.523,7.728,5.523c0.878,0,1.772-0.143,2.65-0.443
		c4.268-1.463,6.543-6.109,5.08-10.378c-1.464-4.27-3.013-8.591-4.606-12.841c-1.583-4.226-6.292-6.368-10.517-4.786
		c-4.226,1.583-6.368,6.291-4.786,10.517C101.713,95.6,103.21,99.775,104.624,103.9z"/>
	<path style="fill:#700D00;" d="M407.337,407.984c-1.521-4.249-6.203-6.456-10.446-4.937c-4.249,1.522-6.459,6.198-4.937,10.447
		l4.525,12.627c1.197,3.336,4.339,5.413,7.691,5.413c0.916,0,1.848-0.155,2.758-0.482c4.247-1.524,6.456-6.202,4.932-10.449
		L407.337,407.984z"/>
	<path style="fill:#700D00;" d="M397.832,376.678l-3.256-13.005c-1.095-4.377-5.529-7.036-9.909-5.944
		c-4.378,1.095-7.038,5.532-5.942,9.909l3.258,13.011c0.93,3.71,4.259,6.185,7.919,6.185c0.658,0,1.327-0.081,1.994-0.247
		C396.272,385.493,398.93,381.055,397.832,376.678z"/>
	<path style="fill:#700D00;" d="M381.316,340.86c4.464-0.662,7.545-4.818,6.883-9.281l-1.966-13.262
		c-0.659-4.464-4.816-7.543-9.278-6.887c-4.464,0.66-7.547,4.814-6.886,9.278l1.966,13.27c0.602,4.057,4.089,6.972,8.071,6.972
		C380.505,340.949,380.909,340.921,381.316,340.86z"/>
	<path style="fill:#700D00;" d="M375.272,294.313c4.508-0.222,7.981-4.056,7.758-8.562l-0.658-13.393
		c-0.221-4.507-4.051-7.969-8.56-7.761c-4.508,0.221-7.982,4.055-7.761,8.561l0.658,13.396c0.216,4.369,3.827,7.767,8.154,7.767
		C374.999,294.324,375.135,294.32,375.272,294.313z"/>
	<path style="fill:#700D00;" d="M373.921,247.403c0.098,0.003,0.195,0.004,0.292,0.004c4.38,0,8.006-3.473,8.159-7.884
		c0.155-4.393,0.371-8.824,0.645-13.167c0.283-4.503-3.137-8.384-7.642-8.668c-4.507-0.278-8.384,3.137-8.667,7.641
		c-0.283,4.494-0.507,9.078-0.666,13.621C365.884,243.46,369.411,247.244,373.921,247.403z"/>
	<path style="fill:#700D00;" d="M376.944,200.563c0.405,0.06,0.808,0.089,1.206,0.089c3.983,0,7.471-2.917,8.071-6.975l1.966-13.263
		c0.661-4.463-2.419-8.619-6.883-9.281c-4.454-0.657-8.619,2.418-9.281,6.883l-1.966,13.271
		C369.398,195.75,372.481,199.903,376.944,200.563z"/>
	<path style="fill:#700D00;" d="M384.66,154.261c0.666,0.167,1.333,0.247,1.99,0.247c3.659,0,6.99-2.477,7.92-6.188l3.259-13.006
		c1.098-4.377-1.56-8.815-5.936-9.913c-4.371-1.097-8.814,1.559-9.913,5.936l-3.262,13.014
		C377.623,148.728,380.283,153.165,384.66,154.261z"/>
	<path style="fill:#700D00;" d="M407.04,80.976c-4.229-1.584-8.935,0.559-10.517,4.786c-1.593,4.253-3.143,8.573-4.606,12.842
		c-1.463,4.269,0.812,8.915,5.08,10.377c0.878,0.301,1.771,0.443,2.65,0.443c3.393,0,6.566-2.133,7.728-5.523
		c1.414-4.124,2.911-8.299,4.45-12.408C413.408,87.267,411.266,82.558,407.04,80.976z"/>
	<path style="fill:#700D00;" d="M427.972,49.912V8.17c0-4.512-3.657-8.17-8.17-8.17H92.197c-4.512,0-8.17,3.658-8.17,8.17v41.742
		C54.004,113.821,38.141,185.041,38.141,256s15.864,142.178,45.887,206.088v41.742c0,4.512,3.658,8.17,8.17,8.17h327.604
		c4.513,0,8.17-3.658,8.17-8.17v-41.742c30.024-63.91,45.886-135.129,45.887-206.088
		C473.859,185.041,457.996,113.821,427.972,49.912z M417.277,446.171c-1.234-0.037-2.495,0.198-3.69,0.756
		c-4.089,1.908-5.858,6.769-3.95,10.859l1.996,4.281v33.593H100.368v-27.234h286.753c4.513,0,8.17-3.658,8.17-8.17
		c0-4.512-3.657-8.17-8.17-8.17H97.403c-56.734-122.951-57.626-262.779-2.678-386.26c0.081,0.002,0.159,0.017,0.24,0.017
		c1.156,0,2.33-0.247,3.447-0.768c4.089-1.906,5.86-6.767,3.952-10.857l-1.997-4.284V16.34h311.264v27.234H124.878
		c-4.512,0-8.17,3.658-8.17,8.17s3.658,8.17,8.17,8.17h289.719C471.33,182.864,472.222,322.69,417.277,446.171z"/>
	<path style="fill:#700D00;" d="M330.193,266.7c-3.55-19.284-14.291-38.691-30.247-54.646c-19.724-19.724-45.13-31.5-67.96-31.5
		c-14.969,0-27.817,4.936-37.156,14.276c-12.153,12.153-16.777,30.076-13.024,50.47c3.55,19.284,14.292,38.691,30.247,54.646
		c19.725,19.724,45.13,31.5,67.96,31.5c14.956,0,27.797-4.93,37.134-14.255C329.329,304.982,333.945,287.073,330.193,266.7z
		 M280.014,315.104c-18.591,0-39.678-9.986-56.406-26.713c-13.637-13.637-22.774-29.99-25.731-46.049
		c-2.1-11.408-0.828-21.539,3.549-29.363l21.289,21.288c1.595,1.595,3.686,2.393,5.777,2.393s4.182-0.797,5.777-2.393
		c3.191-3.191,3.191-8.364,0-11.554l-21.294-21.294c5.336-2.978,11.776-4.525,19.012-4.525c18.592,0,39.678,9.986,56.405,26.713
		c13.638,13.637,22.775,29.991,25.732,46.05c2.1,11.408,0.828,21.538-3.548,29.362l-53.196-53.197
		c-3.191-3.191-8.364-3.191-11.555,0c-3.191,3.191-3.191,8.364,0,11.554l53.201,53.202
		C293.69,313.557,287.249,315.104,280.014,315.104z"/>
</g>
<g>
</g>
<g>
</g>
<g>
</g>
<g>
</g>
<g>
</g>
<g>
</g>
<g>
</g>
<g>
</g>
<g>
</g>
<g>
</g>
<g>
</g>
<g>
</g>
<g>
</g>
<g>
</g>
<g>
</g>
</svg>
